<svg width="300" height="300" viewBox="0 0 300 300" fill="none" xmlns="http://www.w3.org/2000/svg">
<g clip-path="url(#clip0_1_2)">
<circle cx="150" cy="150" r="150" fill="#747BFF"/>
<path d="M98 84C98 55.2812 121.281 32 150 32V32C178.719 32 202 55.2812 202 84V162C202 190.719 178.719 214 150 214V214C121.281 214 98 190.719 98 162V84Z" fill="black"/>
<path d="M236 152C236 198.944 197.72 237 150.5 237C103.28 237 65 198.944 65 152" stroke="black" stroke-width="18" stroke-linecap="round"/>
<line x1="149" y1="248" x2="149" y2="266" stroke="black" stroke-width="22" stroke-linecap="round"/>
<path d="M40.2559 176.868L59.5155 126.122L93.8334 168.174L40.2559 176.868Z" fill="black" stroke="black"/>
</g>
<defs>
<clipPath id="clip0_1_2">
<rect width="300" height="300" fill="white"/>
</clipPath>
</defs>
</svg>
